<?xml version="1.0" encoding="UTF-8" standalone="no"?>
<!-- Created with Inkscape (http://www.inkscape.org/) -->
<svg
   xmlns:dc="http://purl.org/dc/elements/1.1/"
   xmlns:cc="http://web.resource.org/cc/"
   xmlns:rdf="http://www.w3.org/1999/02/22-rdf-syntax-ns#"
   xmlns:svg="http://www.w3.org/2000/svg"
   xmlns="http://www.w3.org/2000/svg"
   xmlns:sodipodi="http://sodipodi.sourceforge.net/DTD/sodipodi-0.dtd"
   xmlns:inkscape="http://www.inkscape.org/namespaces/inkscape"
   width="64px"
   height="64px"
   id="svg31664"
   sodipodi:version="0.32"
   inkscape:version="0.45.1"
   sodipodi:docbase="C:\Users\james\Desktop\Facebook svg icons"
   sodipodi:docname="friend finder.svg"
   inkscape:output_extension="org.inkscape.output.svg.inkscape"
   inkscape:export-filename="C:\Users\james\Desktop\Facebook svg icons\friend finder.png"
   inkscape:export-xdpi="720"
   inkscape:export-ydpi="720">
  <defs
     id="defs31666" />
  <sodipodi:namedview
     id="base"
     pagecolor="#ffffff"
     bordercolor="#666666"
     borderopacity="1.0"
     inkscape:pageopacity="0.0"
     inkscape:pageshadow="2"
     inkscape:zoom="5.5"
     inkscape:cx="32"
     inkscape:cy="32"
     inkscape:current-layer="layer1"
     showgrid="true"
     inkscape:document-units="px"
     inkscape:grid-bbox="true"
     inkscape:window-width="765"
     inkscape:window-height="575"
     inkscape:window-x="46"
     inkscape:window-y="46" />
  <metadata
     id="metadata31669">
    <rdf:RDF>
      <cc:Work
         rdf:about="">
        <dc:format>image/svg+xml</dc:format>
        <dc:type
           rdf:resource="http://purl.org/dc/dcmitype/StillImage" />
      </cc:Work>
    </rdf:RDF>
  </metadata>
  <g
     id="layer1"
     inkscape:label="Layer 1"
     inkscape:groupmode="layer">
    <g
       id="g31652"
       transform="matrix(4.0000052,0,0,4.0000052,-1128.0015,-676.00096)">
      <g
         id="g30667">
        <rect
           style="opacity:1;fill:#fffefd;fill-opacity:1;fill-rule:nonzero;stroke:#b5b5b5;stroke-width:0.98299026;stroke-linecap:round;stroke-linejoin:round;stroke-miterlimit:4;stroke-dasharray:none;stroke-dashoffset:0;stroke-opacity:1"
           id="rect29696"
           width="8.017004"
           height="11.017019"
           x="286.49152"
           y="169.4915"
           rx="0.75961536"
           ry="0.75961536" />
        <rect
           style="opacity:1;fill:#fffefd;fill-opacity:1;fill-rule:nonzero;stroke:#898989;stroke-width:0.98299026;stroke-linecap:round;stroke-linejoin:round;stroke-miterlimit:4;stroke-dasharray:none;stroke-dashoffset:0;stroke-opacity:1"
           id="rect28725"
           width="8.017004"
           height="11.017019"
           x="284.49152"
           y="171.4915"
           rx="0.75961536"
           ry="0.75961536" />
        <g
           id="g22759"
           transform="translate(109,110)">
          <path
             sodipodi:nodetypes="ccccccccccccccccccccccccc"
             id="path22757"
             d="M 183,70 L 183,69 L 182,69 L 181,69 L 181,67 L 181,65 L 182,65 L 183,65 L 183,64 L 183,63 L 185,63 L 187,63 L 187,64 L 187,65 L 188,65 L 189,65 L 189,67 L 189,69 L 188,69 L 187,69 L 187,70 L 187,71 L 185,71 L 183,71 L 183,70 z "
             style="fill:#d0e4ba;fill-opacity:1" />
          <path
             id="path19848"
             d="M 183,70 L 183,69 L 182,69 L 181,69 L 181,67 L 181,65 L 182,65 L 183,65 L 183,64 L 183,63 L 185,63 L 187,63 L 187,64 L 187,65 L 188,65 L 189,65 L 189,67 L 189,69 L 188,69 L 187,69 L 187,70 L 187,71 L 185,71 L 183,71 L 183,70 z M 186,69 L 186,68 L 187,68 L 188,68 L 188,67 L 188,66 L 187,66 L 186,66 L 186,65 L 186,64 L 185,64 L 184,64 L 184,65 L 184,66 L 183,66 L 182,66 L 182,67 L 182,68 L 183,68 L 184,68 L 184,69 L 184,70 L 185,70 L 186,70 L 186,69 z "
             style="fill:#47970e;fill-opacity:1" />
        </g>
        <rect
           style="opacity:1;fill:#ffffff;fill-opacity:1;fill-rule:nonzero;stroke:#6b6b6b;stroke-width:0.98299026;stroke-linecap:round;stroke-linejoin:round;stroke-miterlimit:4;stroke-dasharray:none;stroke-dashoffset:0;stroke-opacity:1"
           id="rect27708"
           width="8.017004"
           height="11.017019"
           x="282.49152"
           y="173.4915"
           rx="0.75961536"
           ry="0.75961536" />
        <rect
           style="opacity:1;fill:#c7cedd;fill-opacity:1;fill-rule:nonzero;stroke:#7d7d7d;stroke-width:0;stroke-linecap:round;stroke-linejoin:round;stroke-miterlimit:4;stroke-dasharray:none;stroke-dashoffset:0;stroke-opacity:1"
           id="rect27706"
           width="5"
           height="6"
           x="284"
           y="175"
           rx="0"
           ry="0" />
        <path
           style="fill:#758ab3;fill-opacity:1;fill-rule:evenodd;stroke:#3b5998;stroke-width:0.17169693px;stroke-linecap:butt;stroke-linejoin:miter;stroke-opacity:1"
           d="M 284.08585,180.91415 L 288.91415,180.91415 L 288.91415,180.23032 C 288.91415,179.71853 286.90459,180.05541 287.45799,178.00787 C 288.15063,175.44507 285.03464,175.44527 285.72724,178.00787 C 286.28111,180.05721 284.08585,179.71053 284.08585,180.23032 L 284.08585,180.91415 z "
           id="path18805"
           sodipodi:nodetypes="ccccccc" />
      </g>
      <rect
         ry="0.95998985"
         rx="0"
         y="182"
         x="284"
         height="1"
         width="5"
         id="rect30681"
         style="opacity:1;fill:#a8b6ca;fill-opacity:1;fill-rule:nonzero;stroke:#b5b5b5;stroke-width:0;stroke-linecap:round;stroke-linejoin:round;stroke-miterlimit:4;stroke-dasharray:none;stroke-dashoffset:0;stroke-opacity:1" />
    </g>
  </g>
</svg>
