<?xml version="1.0" encoding="UTF-8" standalone="no"?>
<!-- Created with Inkscape (http://www.inkscape.org/) -->
<svg
   xmlns:dc="http://purl.org/dc/elements/1.1/"
   xmlns:cc="http://web.resource.org/cc/"
   xmlns:rdf="http://www.w3.org/1999/02/22-rdf-syntax-ns#"
   xmlns:svg="http://www.w3.org/2000/svg"
   xmlns="http://www.w3.org/2000/svg"
   xmlns:sodipodi="http://sodipodi.sourceforge.net/DTD/sodipodi-0.dtd"
   xmlns:inkscape="http://www.inkscape.org/namespaces/inkscape"
   width="64px"
   height="64px"
   id="svg22774"
   sodipodi:version="0.32"
   inkscape:version="0.45.1"
   sodipodi:docbase="C:\Users\james\Desktop\Facebook svg icons"
   sodipodi:docname="friedn added.svg"
   inkscape:output_extension="org.inkscape.output.svg.inkscape"
   inkscape:export-filename="C:\Users\james\Desktop\Facebook svg icons\friedn added.png"
   inkscape:export-xdpi="720"
   inkscape:export-ydpi="720">
  <defs
     id="defs22776" />
  <sodipodi:namedview
     id="base"
     pagecolor="#ffffff"
     bordercolor="#666666"
     borderopacity="1.0"
     inkscape:pageopacity="0.0"
     inkscape:pageshadow="2"
     inkscape:zoom="3.8890873"
     inkscape:cx="39.64961"
     inkscape:cy="33.928473"
     inkscape:current-layer="layer1"
     showgrid="true"
     inkscape:document-units="px"
     inkscape:grid-bbox="true"
     inkscape:window-width="765"
     inkscape:window-height="575"
     inkscape:window-x="682"
     inkscape:window-y="181" />
  <metadata
     id="metadata22779">
    <rdf:RDF>
      <cc:Work
         rdf:about="">
        <dc:format>image/svg+xml</dc:format>
        <dc:type
           rdf:resource="http://purl.org/dc/dcmitype/StillImage" />
      </cc:Work>
    </rdf:RDF>
  </metadata>
  <g
     id="layer1"
     inkscape:label="Layer 1"
     inkscape:groupmode="layer">
    <g
       id="g22763"
       transform="matrix(3.5555563,0,0,3.5555563,-625.77792,-198.87893)">
      <path
         sodipodi:nodetypes="ccccccc"
         id="path18805"
         d="M 176.20604,69.793964 L 187.79396,69.793964 L 187.79396,68.152769 C 187.79396,66.924482 182.97102,67.732983 184.29916,62.818888 C 185.96152,56.668176 178.48313,56.668662 180.14536,62.818888 C 181.47467,67.73732 176.20604,66.905276 176.20604,68.152769 L 176.20604,69.793964 z "
         style="opacity:1;fill:#a1b0cd;fill-opacity:1;fill-rule:evenodd;stroke:#3b5998;stroke-width:0.41207272px;stroke-linecap:butt;stroke-linejoin:miter;stroke-opacity:1" />
      <g
         id="g22759">
        <path
           style="fill:#d0e4ba;fill-opacity:1"
           d="M 183,70 L 183,69 L 182,69 L 181,69 L 181,67 L 181,65 L 182,65 L 183,65 L 183,64 L 183,63 L 185,63 L 187,63 L 187,64 L 187,65 L 188,65 L 189,65 L 189,67 L 189,69 L 188,69 L 187,69 L 187,70 L 187,71 L 185,71 L 183,71 L 183,70 z "
           id="path22757"
           sodipodi:nodetypes="ccccccccccccccccccccccccc" />
        <path
           style="fill:#47970e;fill-opacity:1"
           d="M 183,70 L 183,69 L 182,69 L 181,69 L 181,67 L 181,65 L 182,65 L 183,65 L 183,64 L 183,63 L 185,63 L 187,63 L 187,64 L 187,65 L 188,65 L 189,65 L 189,67 L 189,69 L 188,69 L 187,69 L 187,70 L 187,71 L 185,71 L 183,71 L 183,70 z M 186,69 L 186,68 L 187,68 L 188,68 L 188,67 L 188,66 L 187,66 L 186,66 L 186,65 L 186,64 L 185,64 L 184,64 L 184,65 L 184,66 L 183,66 L 182,66 L 182,67 L 182,68 L 183,68 L 184,68 L 184,69 L 184,70 L 185,70 L 186,70 L 186,69 z "
           id="path19848" />
      </g>
      <g
         transform="translate(-9.9999933,1.5497208e-6)"
         id="g17751">
        <rect
           style="fill:#ffffff;fill-opacity:1;fill-rule:nonzero;stroke:#47970e;stroke-width:1;stroke-linecap:round;stroke-linejoin:round;stroke-miterlimit:4;stroke-dasharray:none;stroke-dashoffset:0;stroke-opacity:1"
           id="rect8033"
           width="8.82938"
           height="2.9634445"
           x="62.5"
           y="-201.5"
           rx="0"
           ry="0"
           transform="matrix(0,1,-1,0,0,0)" />
        <rect
           style="fill:#ffffff;fill-opacity:1;fill-rule:nonzero;stroke:#47970e;stroke-width:0.99550176;stroke-linecap:round;stroke-linejoin:round;stroke-miterlimit:4;stroke-dasharray:none;stroke-dashoffset:0;stroke-opacity:1"
           id="rect7062"
           width="4.9773822"
           height="3.0224595"
           x="196.52487"
           y="62.497749"
           rx="0"
           ry="0" />
        <rect
           style="fill:#ffffff;fill-opacity:1;fill-rule:nonzero;stroke:#47970e;stroke-width:1;stroke-linecap:round;stroke-linejoin:round;stroke-miterlimit:4;stroke-dasharray:none;stroke-dashoffset:0;stroke-opacity:1"
           id="rect9004"
           width="6.9924402"
           height="2.8693695"
           x="196.50755"
           y="68.5"
           rx="0"
           ry="0" />
        <rect
           style="opacity:1;fill:#ffffff;fill-opacity:1;fill-rule:nonzero;stroke:#47970e;stroke-width:0;stroke-linecap:round;stroke-linejoin:round;stroke-miterlimit:4;stroke-dasharray:none;stroke-dashoffset:0;stroke-opacity:1"
           id="rect16768"
           width="2"
           height="6"
           x="199"
           y="63"
           ry="0" />
      </g>
    </g>
  </g>
</svg>
