<?xml version="1.0" encoding="UTF-8" standalone="no"?>
<!-- Created with Inkscape (http://www.inkscape.org/) -->
<svg
   xmlns:dc="http://purl.org/dc/elements/1.1/"
   xmlns:cc="http://web.resource.org/cc/"
   xmlns:rdf="http://www.w3.org/1999/02/22-rdf-syntax-ns#"
   xmlns:svg="http://www.w3.org/2000/svg"
   xmlns="http://www.w3.org/2000/svg"
   xmlns:xlink="http://www.w3.org/1999/xlink"
   xmlns:sodipodi="http://sodipodi.sourceforge.net/DTD/sodipodi-0.dtd"
   xmlns:inkscape="http://www.inkscape.org/namespaces/inkscape"
   width="64px"
   height="64px"
   id="svg16774"
   sodipodi:version="0.32"
   inkscape:version="0.45.1"
   sodipodi:docbase="C:\Users\james\Desktop\Facebook svg icons"
   sodipodi:docname="gift.svg"
   inkscape:output_extension="org.inkscape.output.svg.inkscape"
   inkscape:export-filename="C:\Users\james\Desktop\Facebook svg icons\gift.png"
   inkscape:export-xdpi="720"
   inkscape:export-ydpi="720">
  <defs
     id="defs16776">
    <linearGradient
       id="linearGradient10890">
      <stop
         style="stop-color:#dca6a6;stop-opacity:1;"
         offset="0"
         id="stop10892" />
      <stop
         id="stop26627"
         offset="1"
         style="stop-color:#f6bdbd;stop-opacity:1;" />
      <stop
         style="stop-color:#dca6a6;stop-opacity:1;"
         offset="1"
         id="stop10894" />
    </linearGradient>
    <linearGradient
       inkscape:collect="always"
       xlink:href="#linearGradient10890"
       id="linearGradient16805"
       gradientUnits="userSpaceOnUse"
       gradientTransform="matrix(4.2900956,0,0,4.2654092,-836.74441,-448.05404)"
       x1="202.5"
       y1="113.78956"
       x2="202.5"
       y2="107.08398" />
    <linearGradient
       inkscape:collect="always"
       xlink:href="#linearGradient10890"
       id="linearGradient16808"
       gradientUnits="userSpaceOnUse"
       gradientTransform="matrix(4.2851188,0,0,4.2646069,-835.6035,-449.35317)"
       x1="202.17706"
       y1="115.89235"
       x2="202.17706"
       y2="117.56911" />
    <linearGradient
       inkscape:collect="always"
       xlink:href="#linearGradient10890"
       id="linearGradient18776"
       gradientUnits="userSpaceOnUse"
       gradientTransform="matrix(1.0050042,0,0,0.9753009,-318.01583,-74.035722)"
       x1="202.17706"
       y1="115.89235"
       x2="202.17706"
       y2="117.56911" />
    <linearGradient
       inkscape:collect="always"
       xlink:href="#linearGradient10890"
       id="linearGradient18778"
       gradientUnits="userSpaceOnUse"
       gradientTransform="matrix(1.0061715,0,0,0.9754844,-318.24892,-74.43285)"
       x1="202.5"
       y1="113.78956"
       x2="202.5"
       y2="107.08398" />
    <linearGradient
       inkscape:collect="always"
       xlink:href="#linearGradient10890"
       id="linearGradient25614"
       gradientUnits="userSpaceOnUse"
       gradientTransform="matrix(4.2636207,0,0,4.1376077,-831.47517,-434.25131)"
       x1="202.17706"
       y1="115.89235"
       x2="202.17706"
       y2="117.56911" />
    <linearGradient
       inkscape:collect="always"
       xlink:href="#linearGradient10890"
       id="linearGradient25616"
       gradientUnits="userSpaceOnUse"
       gradientTransform="matrix(4.2685729,0,0,4.1383862,-832.5406,-436.11437)"
       x1="202.5"
       y1="113.78956"
       x2="202.5"
       y2="107.08398" />
    <linearGradient
       inkscape:collect="always"
       xlink:href="#linearGradient10890"
       id="linearGradient25645"
       gradientUnits="userSpaceOnUse"
       gradientTransform="matrix(4.289296,0,0,4.1584772,-836.58242,-436.73925)"
       x1="202.5"
       y1="113.78956"
       x2="202.5"
       y2="107.08398" />
    <linearGradient
       inkscape:collect="always"
       xlink:href="#linearGradient10890"
       id="linearGradient25648"
       gradientUnits="userSpaceOnUse"
       gradientTransform="matrix(4.2843197,0,0,4.157695,-835.51181,-434.86715)"
       x1="202.17706"
       y1="115.89235"
       x2="202.17706"
       y2="117.56911" />
    <linearGradient
       inkscape:collect="always"
       xlink:href="#linearGradient10890"
       id="linearGradient26625"
       x1="37.454544"
       y1="56"
       x2="37.272728"
       y2="16.727272"
       gradientUnits="userSpaceOnUse" />
  </defs>
  <sodipodi:namedview
     id="base"
     pagecolor="#ffffff"
     bordercolor="#666666"
     borderopacity="1.0"
     inkscape:pageopacity="0.0"
     inkscape:pageshadow="2"
     inkscape:zoom="3.8890873"
     inkscape:cx="21.039796"
     inkscape:cy="25.987277"
     inkscape:current-layer="layer1"
     showgrid="true"
     inkscape:document-units="px"
     inkscape:grid-bbox="true"
     inkscape:window-width="1680"
     inkscape:window-height="1030"
     inkscape:window-x="-8"
     inkscape:window-y="-8" />
  <metadata
     id="metadata16779">
    <rdf:RDF>
      <cc:Work
         rdf:about="">
        <dc:format>image/svg+xml</dc:format>
        <dc:type
           rdf:resource="http://purl.org/dc/dcmitype/StillImage" />
      </cc:Work>
    </rdf:RDF>
  </metadata>
  <g
     id="layer1"
     inkscape:label="Layer 1"
     inkscape:groupmode="layer">
    <rect
       style="fill:url(#linearGradient25648);fill-opacity:1;fill-rule:nonzero;stroke:#613b3b;stroke-width:4.01941919;stroke-linecap:round;stroke-linejoin:round;stroke-miterlimit:4;stroke-dasharray:none;stroke-dashoffset:0;stroke-opacity:1"
       id="rect22664"
       width="59.844681"
       height="16.011106"
       x="2.0776601"
       y="41.803928"
       rx="0"
       ry="0" />
    <rect
       style="fill:url(#linearGradient25645);fill-opacity:1;fill-rule:nonzero;stroke:#613b3b;stroke-width:4.01941919;stroke-linecap:round;stroke-linejoin:round;stroke-miterlimit:4;stroke-dasharray:none;stroke-dashoffset:0;stroke-opacity:1"
       id="rect22666"
       width="59.980579"
       height="34.85302"
       x="2.0097106"
       y="6.1722908"
       rx="2.9455855"
       ry="2.8591344" />
    <rect
       style="opacity:1;fill:#f6bdbd;fill-opacity:1;fill-rule:nonzero;stroke:url(#linearGradient26625);stroke-width:0;stroke-linecap:round;stroke-linejoin:round;stroke-miterlimit:4;stroke-dasharray:none;stroke-dashoffset:0;stroke-opacity:0"
       id="rect25636"
       width="56"
       height="48"
       x="4"
       y="8" />
    <rect
       style="opacity:1;fill:#f6ffff;fill-opacity:1;fill-rule:nonzero;stroke:#613b3b;stroke-width:0;stroke-linecap:round;stroke-linejoin:round;stroke-miterlimit:4;stroke-dasharray:none;stroke-dashoffset:0;stroke-opacity:0"
       id="rect26629"
       width="56"
       height="4"
       x="4"
       y="41" />
    <path
       style="fill:#b83030;fill-opacity:0.7372549;fill-rule:evenodd;stroke:#000000;stroke-width:0;stroke-linecap:butt;stroke-linejoin:round;stroke-miterlimit:4;stroke-dasharray:none;stroke-opacity:1"
       d="M 19.730498,59.837419 L 29.568236,59.837419 L 29.568236,29.858703 L 63.999999,29.858703 L 63.999999,21.293296 L 29.568236,21.293296 L 29.568236,4.162581 L 19.730498,4.162581 L 19.730498,21.293296 L 0.055192804,21.293296 L 0.055192804,29.858703 L 19.730498,29.858703 L 19.730498,59.837419 z "
       id="path22672" />
    <g
       id="g22674"
       transform="matrix(4.2629871,0,0,4.2629871,519.29898,-121.849)">
      <path
         d="M -116.97418,35.3641 C -117.05083,35.367047 -117.11731,35.342293 -117.18799,35.316765 C -117.32869,35.280437 -117.45535,35.211167 -117.58177,35.143194 C -117.77298,35.045217 -117.95871,34.937523 -118.15064,34.84092 C -118.36795,34.70402 -118.58508,34.564875 -118.79511,34.417182 C -118.97961,34.292019 -119.14275,34.141253 -119.30266,33.988195 C -119.4455,33.84252 -119.56056,33.675429 -119.6718,33.506505 C -119.77554,33.37536 -119.86039,33.235278 -119.93054,33.085176 C -119.9911,32.951038 -119.99924,32.806183 -120.00291,32.662257 C -120.0023,32.558375 -119.97064,32.461698 -119.94128,32.363828 C -119.66458,32.014443 -119.17794,31.887592 -118.79228,31.67382 C -118.67668,31.657729 -118.56242,31.647659 -118.44871,31.621362 C -118.34426,31.588927 -118.23457,31.585786 -118.12617,31.579413 C -118.01677,31.586146 -117.90962,31.605116 -117.80168,31.622309 C -117.66655,31.660354 -117.54397,31.733937 -117.41905,31.796308 C -117.28853,31.855889 -117.16154,31.914074 -117.0418,31.992087 C -116.95772,32.061669 -116.88963,32.144551 -116.81875,32.226155 C -116.75465,32.307603 -116.68576,32.385313 -116.61849,32.464155 C -116.53576,32.554708 -116.46125,32.651953 -116.38547,32.748009 C -116.29306,32.849351 -116.2254,32.966054 -116.16229,33.085235 C -116.12322,33.199848 -116.10604,33.319224 -116.09009,33.438405 C -116.06475,33.538715 -116.05057,33.64079 -116.0376,33.743119 C -116.02844,33.825308 -116.02978,33.908101 -116.02889,33.990633 C -116.02845,34.027791 -116.02772,34.064938 -116.02713,34.102096 L -117.02895,34.599572 C -117.02824,34.561908 -117.02726,34.524253 -117.02683,34.486579 C -117.02686,34.405864 -117.02674,34.325157 -117.02851,34.244451 C -117.03344,34.144044 -117.04162,34.043959 -117.06577,33.945806 C -117.08744,33.834168 -117.09019,33.720344 -117.12318,33.610999 C -117.17762,33.497498 -117.24255,33.391383 -117.32592,33.29484 C -117.40626,33.201662 -117.48745,33.109404 -117.57361,33.021195 C -117.64025,32.942665 -117.70475,32.862662 -117.76708,32.780822 C -117.83612,32.709006 -117.90573,32.637286 -117.9794,32.569812 C -118.08837,32.492678 -118.20778,32.436658 -118.32918,32.379595 C -118.45277,32.321039 -118.57492,32.257653 -118.71453,32.246042 C -118.81537,32.228087 -118.91728,32.212221 -119.02019,32.221861 C -119.12481,32.232713 -119.22788,32.248705 -119.32991,32.274387 C -119.44518,32.28963 -119.56415,32.297055 -119.66767,32.353785 C -119.6804,32.360548 -119.69315,32.367311 -119.7059,32.374072 C -119.39749,32.200043 -119.08908,32.026004 -118.78069,31.851976 C -118.82538,31.877336 -118.8716,31.895515 -118.91317,31.925843 C -118.96778,32.006558 -119.01335,32.078102 -119.01526,32.183631 C -119.03505,32.315185 -119.02859,32.436571 -118.9742,32.561742 C -118.91155,32.706333 -118.84953,32.851917 -118.75627,32.981129 C -118.63697,33.13657 -118.52774,33.299455 -118.39634,33.445782 C -118.24014,33.596694 -118.07944,33.741802 -117.89917,33.865665 C -117.7026,34.020931 -117.496,34.166301 -117.26898,34.276661 C -117.0737,34.374277 -116.87925,34.473259 -116.68116,34.56542 C -116.54734,34.622358 -116.41393,34.67745 -116.2696,34.704321 C -116.19648,34.70968 -116.12386,34.721603 -116.04987,34.70926 L -116.97418,35.3641 z "
         id="path22676"
         style="fill:#a23a3a;fill-opacity:1;fill-rule:nonzero;stroke:#613b3b;stroke-width:0;stroke-linecap:round;stroke-linejoin:round;stroke-miterlimit:4;stroke-dasharray:none;stroke-dashoffset:0;stroke-opacity:1" />
      <path
         d="M -116.60182,34.774782 C -116.57418,34.70399 -116.56541,34.627431 -116.55156,34.553175 C -116.5378,34.426549 -116.51935,34.302256 -116.49143,34.177991 C -116.44287,34.012159 -116.35448,33.861266 -116.27684,33.70726 C -116.19579,33.558201 -116.10476,33.414675 -116.01336,33.271685 C -115.91632,33.150719 -115.81111,33.036075 -115.70585,32.92189 C -115.60698,32.82242 -115.49674,32.734815 -115.39003,32.64364 C -115.30103,32.561109 -115.21419,32.476441 -115.12587,32.393188 C -115.03283,32.304705 -114.94028,32.215676 -114.84715,32.127241 C -114.44215,31.75556 -113.90987,31.524654 -113.43751,31.259751 C -113.2831,31.172722 -113.11881,31.108711 -112.94917,31.058069 C -112.82205,31.021312 -112.69406,30.994107 -112.56313,30.975256 C -112.43355,30.965204 -112.30338,30.971088 -112.1736,30.973333 C -111.99886,30.97466 -111.82418,30.976874 -111.64944,30.976923 C -111.46496,30.958092 -111.30126,30.991062 -111.13172,31.052585 C -110.98939,31.115386 -110.86017,31.198727 -110.7353,31.289063 C -110.64809,31.3472 -110.5928,31.425836 -110.54103,31.512867 C -110.49775,31.61905 -110.47557,31.730492 -110.455,31.842375 C -110.44117,31.963819 -110.43925,32.085712 -110.43977,32.207722 C -110.43246,32.340145 -110.45069,32.470713 -110.47,32.601272 C -110.48973,32.726072 -110.54041,32.837573 -110.59968,32.947953 C -110.66716,33.052009 -110.74866,33.145253 -110.83104,33.238041 C -110.90298,33.322874 -110.97883,33.403941 -111.05453,33.485554 C -111.13581,33.58317 -111.23555,33.659749 -111.3363,33.736805 C -111.74178,34.042535 -112.19457,34.287814 -112.66074,34.4938 C -112.81097,34.560981 -112.96332,34.615518 -113.12273,34.65647 C -113.2587,34.693842 -113.40023,34.701005 -113.54041,34.710264 C -113.64543,34.717114 -113.74919,34.734064 -113.85434,34.742309 C -114.00031,34.758984 -114.14753,34.759472 -114.29427,34.762049 C -114.50593,34.763425 -114.71759,34.761853 -114.92926,34.761122 C -115.14903,34.749286 -115.36567,34.763122 -115.58274,34.794337 C -115.65616,34.807208 -115.73031,34.815326 -115.80424,34.824752 L -114.91992,34.18406 C -114.85214,34.177805 -114.78431,34.171863 -114.71653,34.165472 C -114.50198,34.152953 -114.28758,34.154495 -114.07255,34.154017 C -113.85666,34.152738 -113.64068,34.151323 -113.42498,34.141654 C -113.26843,34.132374 -113.11241,34.119338 -112.95731,34.095968 C -112.85612,34.085371 -112.75505,34.074421 -112.65313,34.073164 C -112.51838,34.061903 -112.38442,34.046945 -112.25445,34.00771 C -112.10194,33.958511 -111.95268,33.901409 -111.80757,33.833495 C -111.16863,33.504465 -113.04417,34.570319 -112.35151,34.132755 C -112.25735,34.058966 -112.15539,33.993795 -112.07665,33.90375 C -111.99851,33.820292 -111.91835,33.739283 -111.84405,33.652597 C -111.76144,33.564776 -111.67801,33.477212 -111.61203,33.376307 C -111.53968,33.281608 -111.48223,33.188384 -111.46459,33.067875 C -111.43334,32.945123 -111.40867,32.823532 -111.42051,32.695658 C -111.42316,32.578916 -111.42092,32.461766 -111.43389,32.345541 C -111.44865,32.243895 -111.46512,32.144181 -111.51566,32.052137 C -111.55967,31.98109 -111.60021,31.911792 -111.67287,31.861802 C -111.78187,31.773084 -111.89352,31.68793 -112.02913,31.640487 C -112.19203,31.602501 -112.35287,31.58436 -112.52164,31.594694 C -112.699,31.594315 -112.87633,31.595797 -113.05369,31.597349 C -113.18601,31.601232 -113.31894,31.60294 -113.45006,31.622846 C -113.57381,31.645962 -113.6963,31.674269 -113.81662,31.711192 C -113.97149,31.767757 -114.12406,31.829718 -114.26675,31.912435 C -112.68315,31.017857 -113.52141,31.441909 -113.83503,31.715436 C -113.92256,31.805403 -114.01543,31.890519 -114.10086,31.982369 C -114.19297,32.06567 -114.28475,32.149079 -114.37357,32.235551 C -114.47859,32.331783 -114.58954,32.4209 -114.69764,32.5139 C -114.80782,32.623099 -114.91084,32.738142 -115.0166,32.851332 C -115.11675,32.986281 -115.20807,33.126568 -115.28944,33.273656 C -115.36627,33.418577 -115.45312,33.560367 -115.50428,33.716528 C -115.53477,33.835349 -115.55244,33.952451 -115.55621,34.075124 C -115.56308,34.147889 -115.5684,34.220651 -115.57178,34.29363 L -116.60182,34.774782 z "
         id="path22678"
         style="fill:#a23a3a;fill-opacity:1;fill-rule:nonzero;stroke:#613b3b;stroke-width:0;stroke-linecap:round;stroke-linejoin:round;stroke-miterlimit:4;stroke-dasharray:none;stroke-dashoffset:0;stroke-opacity:1" />
      <path
         d="M -116.37574,35.113999 C -116.44477,35.118274 -116.51392,35.120323 -116.58303,35.12323 C -116.66281,35.133837 -116.70683,35.088092 -116.7676,35.050302 C -116.81693,34.994332 -116.8273,34.926593 -116.84269,34.85746 C -116.86942,34.806046 -116.88265,34.750896 -116.89818,34.695911 C -116.90782,34.624133 -116.90703,34.551762 -116.90817,34.479621 C -116.91213,34.410478 -116.90676,34.342126 -116.90191,34.273617 C -116.89975,34.202269 -116.85443,34.15507 -116.82,34.098387 C -116.52825,33.753647 -116.11538,33.522429 -115.67868,33.501382 C -115.6011,33.495673 -115.55681,33.533894 -115.49793,33.568924 C -115.45547,33.623285 -115.39881,33.660285 -115.3448,33.701775 C -115.30213,33.742182 -115.26292,33.78616 -115.2237,33.829933 C -115.16629,33.88207 -115.12605,33.947777 -115.08115,34.009475 C -115.03887,34.06884 -115.02501,34.137067 -115.0072,34.205196 C -114.98456,34.272612 -115.01676,34.307184 -115.04265,34.360167 C -115.07452,34.404995 -115.09719,34.457306 -115.12094,34.507108 C -115.15564,34.54251 -115.19418,34.576008 -115.23197,34.608726 C -115.27357,34.653142 -115.3287,34.687304 -115.37941,34.723272 C -115.69212,35.035304 -116.16935,35.175366 -116.53398,35.369076 C -116.60021,35.373897 -116.66669,35.371857 -116.733,35.371242 C -116.81845,35.382288 -116.85633,35.340495 -116.91703,35.293279 C -116.95231,35.244891 -117.00338,35.214757 -117.04896,35.178118 C -117.07804,35.16997 -117.09047,35.140648 -117.11046,35.122606 L -116.13734,34.552298 C -116.12156,34.56503 -116.10689,34.579443 -116.08972,34.590693 C -116.04541,34.630915 -115.99972,34.669925 -115.95634,34.711299 C -115.91391,34.716499 -115.86817,34.737255 -115.82022,34.723965 C -115.75927,34.719866 -115.69711,34.723223 -115.63891,34.701073 C -115.89869,34.848932 -116.66934,35.305728 -116.42034,35.141146 C -116.37739,35.101207 -116.33578,35.052634 -116.28166,35.030659 C -116.24747,34.993961 -116.21345,34.949153 -116.16467,34.932087 C -116.12984,34.891973 -116.08429,34.871159 -116.08201,34.807266 C -116.05539,34.780716 -116.03093,34.745998 -116.00551,34.718792 C -116.01745,34.662754 -116.01917,34.606267 -116.05689,34.558053 C -116.095,34.502132 -116.1299,34.445128 -116.18665,34.403852 C -116.22361,34.364685 -116.26045,34.32505 -116.30092,34.289346 C -116.35121,34.245252 -116.39835,34.196717 -116.45395,34.159373 C -116.49804,34.157353 -116.54068,34.143623 -116.58457,34.158943 C -116.87357,34.283208 -116.08943,33.707864 -115.77498,33.678728 C -115.81641,33.713017 -115.86313,33.74025 -115.88504,33.791332 C -115.89746,33.855313 -115.91846,33.914883 -115.90764,33.981832 C -115.90674,34.047375 -115.9079,34.113279 -115.8998,34.178449 C -115.88594,34.232361 -115.8778,34.287034 -115.84877,34.336711 C -115.83953,34.377517 -115.83967,34.426549 -115.80866,34.457013 C -115.7653,34.466264 -115.73044,34.495164 -115.67875,34.475113 C -115.60768,34.46755 -115.53557,34.464584 -115.46847,34.437507 L -116.37574,35.113999 z "
         id="path22680"
         style="fill:#c03d3d;fill-opacity:1;fill-rule:nonzero;stroke:#613b3b;stroke-width:0;stroke-linecap:round;stroke-linejoin:round;stroke-miterlimit:4;stroke-dasharray:none;stroke-dashoffset:0;stroke-opacity:1" />
      <path
         d="M -116.56826,35.03104 C -116.56195,34.965936 -116.55119,34.90139 -116.54111,34.836714 C -116.54121,34.777778 -116.52079,34.722853 -116.50831,34.666492 C -116.26268,34.290097 -116.15338,34.406273 -115.44505,34.009798 C -115.37395,34.026024 -115.35357,33.991569 -115.30222,33.964952 C -115.25267,33.946313 -115.20738,33.922212 -115.15903,33.901946 C -115.10327,33.879259 -115.04401,33.872321 -114.98425,33.860406 C -114.92144,33.857109 -114.8585,33.858328 -114.79565,33.858581 C -114.72696,33.847137 -114.67804,33.880664 -114.61885,33.904092 C -114.56998,33.933093 -114.54271,33.979335 -114.50899,34.022131 C -114.47958,34.075691 -114.45572,34.131641 -114.43052,34.186997 C -114.407,34.250236 -114.40529,34.316981 -114.40016,34.383118 C -114.38249,34.447353 -114.41278,34.49499 -114.43012,34.550277 C -114.47218,34.5973 -114.51082,34.646157 -114.54911,34.696174 C -114.59577,34.739547 -114.63999,34.784364 -114.6804,34.833271 C -114.99143,35.137984 -115.39306,35.35319 -115.81469,35.439108 C -115.87836,35.451977 -115.94347,35.450837 -116.0081,35.452358 C -116.07834,35.451041 -116.14859,35.450943 -116.21886,35.450954 C -116.28466,35.451276 -116.35046,35.451402 -116.41627,35.451547 C -116.48936,35.436454 -116.52397,35.388241 -116.56888,35.336584 C -116.60762,35.277519 -116.61227,35.210602 -116.62195,35.143526 C -116.63828,35.080531 -116.61299,35.024756 -116.59959,34.96818 C -116.39663,34.571344 -115.81312,34.542207 -115.48308,34.375282 C -115.4137,34.377819 -115.34427,34.377936 -115.27482,34.378219 C -115.17181,34.374482 -115.14211,34.425642 -115.08422,34.493331 L -116.06804,35.042241 C -116.09609,35.037656 -116.14268,34.999737 -116.18551,35.023048 C -116.25422,35.023429 -116.32333,35.021068 -116.39143,35.032348 C -116.10973,34.870593 -115.22954,34.493945 -115.5537,34.535142 C -115.58544,34.570388 -115.63092,34.571695 -115.6192,34.637395 C -115.61447,34.68344 -115.61937,34.731888 -115.59397,34.773329 C -115.56714,34.782648 -115.54222,34.827913 -115.50328,34.804846 C -115.43826,34.805129 -115.37324,34.805373 -115.30824,34.805978 C -115.23809,34.805949 -115.16791,34.807003 -115.09792,34.801459 C -115.03806,34.792893 -114.97692,34.790834 -114.92007,34.767484 C -114.62998,34.648196 -115.41276,35.24567 -115.7276,35.245231 C -115.68142,35.202317 -115.63061,35.166243 -115.5881,35.119844 C -115.54876,35.076784 -115.51037,35.033556 -115.47447,34.986818 C -115.44157,34.953377 -115.39856,34.941064 -115.40435,34.885562 C -115.40674,34.829953 -115.40381,34.773553 -115.41859,34.719154 C -115.44155,34.673624 -115.45851,34.624689 -115.4891,34.58241 C -115.51376,34.560718 -115.52656,34.521042 -115.56524,34.515403 C -115.61159,34.51154 -115.65952,34.496571 -115.70828,34.506455 C -115.76765,34.510173 -115.82801,34.508085 -115.88565,34.525337 C -115.93891,34.546598 -115.99493,34.563577 -116.04497,34.590537 C -116.09228,34.613243 -116.1421,34.630915 -116.18645,34.659954 C -116.23659,34.667262 -116.29088,34.665731 -116.33369,34.698515 C -114.82722,33.847829 -115.17143,33.9666 -115.46845,34.222701 C -115.48974,34.263673 -115.53784,34.291171 -115.53211,34.349122 C -115.53909,34.407492 -115.55107,34.467512 -115.55027,34.525259 L -116.56826,35.03104 z "
         id="path22682"
         style="fill:#c03d3d;fill-opacity:1;fill-rule:nonzero;stroke:#613b3b;stroke-width:0;stroke-linecap:round;stroke-linejoin:round;stroke-miterlimit:4;stroke-dasharray:none;stroke-dashoffset:0;stroke-opacity:1" />
    </g>
  </g>
</svg>
